<!--?xml version="1.0" encoding="utf-8"?-->
<!-- Generator: Adobe Illustrator 15.1.0, SVG Export Plug-In . SVG Version: 6.00 Build 0)  -->

<svg version="1.1" id="_x32_" xmlns="http://www.w3.org/2000/svg" xmlns:xlink="http://www.w3.org/1999/xlink" x="0px" y="0px" width="512px" height="512px" viewBox="0 0 512 512" style="width: 256px; height: 256px; opacity: 1;" xml:space="preserve">
<style type="text/css">

	.st0{fill:#4B4B4B;}

</style>
<g>
	<path class="st0" d="M499.469,44.344c0,0-44.953,0-99.219,0c-29,0.063-58.484,6.375-85.219,17.844
		c-22.219,9.516-42.578,22.516-59.031,38.609c-16.531-16.094-36.875-29.094-59.031-38.609
		c-26.734-11.469-56.234-17.781-85.219-17.844h-70c-18.031,0-29.219,0-29.219,0H0v357.344h12.531c0,0,11.188,0,29.219,0h70
		c25.297,0,51.656,5.641,75.313,15.781c22.172,9.453,43.234,23.875,57.031,38.938c0.953,1.063,9.281,10.109,9.281,10.109
		c0.672,0.734,1.625,1.141,2.625,1.141c0.984,0,1.938-0.406,2.625-1.141c0,0,8.313-9.047,9.266-10.109
		c13.797-15.063,34.875-29.484,56.969-38.938c23.719-10.141,50.094-15.781,75.391-15.781c54.266,0,99.219,0,99.219,0H512V44.344
		H499.469z M243.469,422.047c-13.828-11.141-29.688-20.359-46.5-27.609c-26.734-11.406-56.234-17.781-85.219-17.781H25.031V69.375
		h86.719c25.297,0,51.656,5.703,75.313,15.844c22.172,9.391,41.875,22.734,56.406,38.563V422.047z M486.953,376.656H400.25
		c-29,0-58.484,6.375-85.219,17.781c-16.906,7.25-32.688,16.469-46.516,27.531V123.781c14.531-15.828,34.25-29.172,56.344-38.563
		c23.719-10.141,50.094-15.844,75.391-15.844h86.703V376.656z" style="fill: rgb(75, 75, 75);"></path>
	<path class="st0" d="M75.781,133.656v14.203h41.125c30.031,0,61.344,7.609,87.188,20.516v-15.609
		c-26.484-12.141-57.234-19.109-87.188-19.109H75.781z" style="fill: rgb(75, 75, 75);"></path>
	<path class="st0" d="M75.781,182.719v14.219h41.125c30.031,0,61.344,7.516,87.188,20.516V201.75
		c-26.484-12.141-57.234-19.031-87.188-19.031H75.781z" style="fill: rgb(75, 75, 75);"></path>
	<path class="st0" d="M75.781,231.719v14.219h41.125c30.031,0,61.344,7.594,87.188,20.563v-15.656
		c-26.484-12.156-57.234-19.047-87.188-19.125H75.781z" style="fill: rgb(75, 75, 75);"></path>
	<path class="st0" d="M75.781,280.781v14.203h41.125c30.031,0,61.344,7.609,87.188,20.547v-15.719
		c-26.484-12.063-57.234-19.031-87.188-19.031H75.781z" style="fill: rgb(75, 75, 75);"></path>
	<path class="st0" d="M307.906,152.766v15.609c25.781-12.906,57.156-20.516,87.125-20.516h41.188v-14.203h-41.188
		C365.141,133.656,334.406,140.625,307.906,152.766z" style="fill: rgb(75, 75, 75);"></path>
	<path class="st0" d="M307.906,201.75v15.703c25.781-13,57.156-20.516,87.125-20.516h41.188v-14.219h-41.188
		C365.141,182.719,334.406,189.609,307.906,201.75z" style="fill: rgb(75, 75, 75);"></path>
	<path class="st0" d="M307.906,250.844V266.5c25.781-12.969,57.156-20.563,87.125-20.563h41.188v-14.219h-41.188
		C365.141,231.797,334.406,238.688,307.906,250.844z" style="fill: rgb(75, 75, 75);"></path>
	<path class="st0" d="M307.906,299.813v15.719c25.781-12.938,57.156-20.547,87.125-20.547h41.188v-14.203h-41.188
		C365.141,280.781,334.406,287.75,307.906,299.813z" style="fill: rgb(75, 75, 75);"></path>
</g>
</svg>
